<?xml version="1.0" encoding="utf-8"?>
<!-- Generator: Adobe Illustrator 21.0.0, SVG Export Plug-In . SVG Version: 6.00 Build 0)  -->
<svg version="1.0" id="Layer_1" xmlns="http://www.w3.org/2000/svg" xmlns:xlink="http://www.w3.org/1999/xlink" x="0px" y="0px"
	 viewBox="0 0 130.2 40.1" style="enable-background:new 0 0 130.2 40.1;" xml:space="preserve">
<style type="text/css">
	.st0{fill:#FFFFFF;}
</style>
<g>
	<g>
		<path class="st0" d="M61.6,33.6c-1.8,0-3.5-0.3-5.1-1c-1.6-0.6-3-1.5-4.2-2.7c-1.2-1.1-2.1-2.4-2.8-3.9s-1-3.1-1-4.8
			s0.3-3.3,1-4.8s1.6-2.8,2.8-3.9s2.6-2,4.2-2.7c1.6-0.6,3.3-1,5.1-1c1.5,0,2.9,0.2,4.2,0.6c1.3,0.4,2.5,1,3.4,1.6l-2,4
			c-0.6-0.5-1.4-0.9-2.4-1.2c-0.9-0.3-1.9-0.4-2.9-0.4c-1.2,0-2.3,0.2-3.3,0.6s-1.9,0.9-2.6,1.6c-0.7,0.7-1.3,1.5-1.7,2.5
			c-0.4,0.9-0.6,2-0.6,3.1s0.2,2.1,0.6,3.1c0.4,0.9,1,1.8,1.7,2.5s1.6,1.3,2.6,1.6c1,0.4,2.1,0.6,3.3,0.6c1,0,2-0.1,2.9-0.4
			s1.7-0.7,2.4-1.2l2,4c-0.9,0.7-2,1.2-3.3,1.6C64.5,33.3,63.1,33.6,61.6,33.6z"/>
		<path class="st0" d="M72.3,33.1V18.3h4.4v2.1c0.5-0.8,1.2-1.5,2-1.9s1.7-0.7,2.6-0.7c0.5,0,1.1,0.1,1.6,0.2c0.6,0.2,1,0.4,1.4,0.6
			l-1.9,3.7c-0.3-0.2-0.7-0.4-1.2-0.5c-0.4-0.1-0.8-0.2-1.2-0.2c-0.6,0-1.1,0.2-1.6,0.4c-0.5,0.3-0.9,0.7-1.3,1.2
			c-0.3,0.5-0.5,1-0.5,1.5V33L72.3,33.1L72.3,33.1z"/>
		<path class="st0" d="M92.8,33.6c-1.4,0-2.6-0.3-3.7-1s-2-1.6-2.6-2.8c-0.7-1.2-1-2.5-1-4.1c0-1.5,0.3-2.8,0.9-4s1.5-2.1,2.6-2.8
			c1.1-0.7,2.4-1,3.8-1c1.1,0,2,0.2,2.9,0.6s1.7,1,2.2,1.7v-1.8h4.4v14.8h-4.4v-2c-0.7,0.8-1.5,1.4-2.3,1.8
			C94.7,33.3,93.8,33.6,92.8,33.6z M94.1,29.8c0.8,0,1.5-0.2,2.1-0.5s1.1-0.8,1.4-1.5c0.3-0.6,0.5-1.3,0.5-2.1
			c0-0.8-0.2-1.5-0.5-2.1s-0.8-1.1-1.4-1.4c-0.6-0.4-1.3-0.5-2-0.5c-0.8,0-1.4,0.2-2,0.5c-0.6,0.4-1.1,0.8-1.4,1.5
			c-0.3,0.6-0.5,1.3-0.5,2.1c0,0.8,0.2,1.5,0.5,2.1s0.8,1.1,1.4,1.5S93.3,29.8,94.1,29.8z"/>
		<path class="st0" d="M108.1,33.1V21.7h-2v-3.4h2v-3.7c0-1.4,0.2-2.6,0.7-3.6c0.4-1,1.1-1.8,1.9-2.4c0.8-0.6,1.8-0.8,2.9-0.8
			c0.7,0,1.4,0.1,2.1,0.3c0.7,0.2,1.3,0.5,1.8,0.9l-1.5,3.1c-0.5-0.3-1-0.4-1.5-0.4s-0.9,0.1-1.1,0.4s-0.4,0.6-0.5,1.1
			c-0.1,0.4-0.1,1-0.1,1.6v3.6h3.5v3.4h-3.5v11.4L108.1,33.1L108.1,33.1z"/>
		<path class="st0" d="M124.4,33.6c-1.5,0-2.6-0.5-3.4-1.4c-0.8-0.9-1.2-2.3-1.2-3.9v-6.6h-2v-3.4h2v-5.6h4.4v5.6h3.3v3.4h-3.3v6.2
			c0,0.6,0.1,1,0.3,1.3s0.5,0.4,1,0.4s0.9-0.2,1.3-0.5l1.1,3.6c-0.5,0.3-1.1,0.5-1.7,0.6C125.6,33.5,125,33.6,124.4,33.6z"/>
	</g>
	<g>
		<path class="st0" d="M34.2,1.8H5.8c-2,0-3.6,1.9-3.6,3.6v28.8c0,2,1.9,3.6,3.6,3.6h28.7c2,0,3.6-1.9,3.6-3.6V5.5
			C38,3.2,36.5,1.8,34.2,1.8z M18.2,30.5v-3.6c3.7-0.2,6.6-3.1,6.6-6.9c0-2-0.8-3.8-1.9-5.1c-1.3-1.3-3-2-4.9-2v13.7
			c-3.7-0.2-6.6-3.1-6.6-6.9c0-1.9,0.8-3.7,1.9-4.9c1.3-1.3,3-1.9,4.9-1.9V9c5.7-0.3,10.5,4.6,10.8,10.8
			C29,25.7,24.2,30.5,18.2,30.5z"/>
	</g>
</g>
</svg>
